<?xml version="1.0" encoding="UTF-8" standalone="no"?>
<!DOCTYPE svg PUBLIC "-//W3C//DTD SVG 1.1//EN"
 "http://www.w3.org/Graphics/SVG/1.1/DTD/svg11.dtd">
<!-- Generated by graphviz version 8.0.5 (20230430.1635)
 -->
<!-- Pages: 1 -->
<svg width="925pt" height="476pt"
 viewBox="0.00 0.00 924.59 476.00" xmlns="http://www.w3.org/2000/svg" xmlns:xlink="http://www.w3.org/1999/xlink">
<g id="graph0" class="graph" transform="scale(1 1) rotate(0) translate(4 472)">
<polygon fill="white" stroke="none" points="-4,4 -4,-472 920.59,-472 920.59,4 -4,4"/>
<!-- [root] aws_instance.public_ec2 (expand) -->
<g id="node1" class="node">
<title>[root] aws_instance.public_ec2 (expand)</title>
<polygon fill="none" stroke="black" points="644.66,-324 493.66,-324 493.66,-288 644.66,-288 644.66,-324"/>
<text text-anchor="middle" x="569.16" y="-300.95" font-family="Times,serif" font-size="14.00">aws_instance.public_ec2</text>
</g>
<!-- [root] aws_subnet.public_subnet (expand) -->
<g id="node4" class="node">
<title>[root] aws_subnet.public_subnet (expand)</title>
<polygon fill="none" stroke="black" points="553.41,-252 394.91,-252 394.91,-216 553.41,-216 553.41,-252"/>
<text text-anchor="middle" x="474.16" y="-228.95" font-family="Times,serif" font-size="14.00">aws_subnet.public_subnet</text>
</g>
<!-- [root] aws_instance.public_ec2 (expand)&#45;&gt;[root] aws_subnet.public_subnet (expand) -->
<g id="edge1" class="edge">
<title>[root] aws_instance.public_ec2 (expand)&#45;&gt;[root] aws_subnet.public_subnet (expand)</title>
<path fill="none" stroke="black" d="M545.68,-287.7C533.8,-278.95 519.21,-268.19 506.31,-258.69"/>
<polygon fill="black" stroke="black" points="508.83,-255.46 498.7,-252.35 504.68,-261.1 508.83,-255.46"/>
</g>
<!-- [root] data.aws_key_pair.lange2_key (expand) -->
<g id="node6" class="node">
<title>[root] data.aws_key_pair.lange2_key (expand)</title>
<polygon fill="none" stroke="black" points="791.41,-180 608.91,-180 608.91,-144 791.41,-144 791.41,-180"/>
<text text-anchor="middle" x="700.16" y="-156.95" font-family="Times,serif" font-size="14.00">data.aws_key_pair.lange2_key</text>
</g>
<!-- [root] aws_instance.public_ec2 (expand)&#45;&gt;[root] data.aws_key_pair.lange2_key (expand) -->
<g id="edge2" class="edge">
<title>[root] aws_instance.public_ec2 (expand)&#45;&gt;[root] data.aws_key_pair.lange2_key (expand)</title>
<path fill="none" stroke="black" d="M585.22,-287.59C608.23,-262.65 650.7,-216.62 677.07,-188.03"/>
<polygon fill="black" stroke="black" points="679.17,-190.83 683.38,-181.11 674.02,-186.09 679.17,-190.83"/>
</g>
<!-- [root] aws_key_pair.generated_key (expand) -->
<g id="node2" class="node">
<title>[root] aws_key_pair.generated_key (expand)</title>
<polygon fill="none" stroke="black" points="403.54,-324 230.79,-324 230.79,-288 403.54,-288 403.54,-324"/>
<text text-anchor="middle" x="317.16" y="-300.95" font-family="Times,serif" font-size="14.00">aws_key_pair.generated_key</text>
</g>
<!-- [root] provider[&quot;registry.terraform.io/hashicorp/aws&quot;] -->
<g id="node7" class="node">
<title>[root] provider[&quot;registry.terraform.io/hashicorp/aws&quot;]</title>
<polygon fill="none" stroke="black" points="652.16,-108 387.73,-90 652.16,-72 916.59,-90 652.16,-108"/>
<text text-anchor="middle" x="652.16" y="-84.95" font-family="Times,serif" font-size="14.00">provider[&quot;registry.terraform.io/hashicorp/aws&quot;]</text>
</g>
<!-- [root] aws_key_pair.generated_key (expand)&#45;&gt;[root] provider[&quot;registry.terraform.io/hashicorp/aws&quot;] -->
<g id="edge3" class="edge">
<title>[root] aws_key_pair.generated_key (expand)&#45;&gt;[root] provider[&quot;registry.terraform.io/hashicorp/aws&quot;]</title>
<path fill="none" stroke="black" d="M403.95,-295.26C464.6,-286.81 538.74,-272.65 562.16,-252 600.32,-218.34 573.26,-187.19 600.16,-144 606.84,-133.28 616.03,-123 624.82,-114.39"/>
<polygon fill="black" stroke="black" points="626.81,-117.39 631.7,-108 622.02,-112.29 626.81,-117.39"/>
</g>
<!-- [root] var.key_pair_name -->
<g id="node8" class="node">
<title>[root] var.key_pair_name</title>
<polygon fill="none" stroke="black" points="371.29,-252 257.04,-252 257.04,-216 377.29,-216 377.29,-246 371.29,-252"/>
<polyline fill="none" stroke="black" points="371.29,-252 371.29,-246"/>
<polyline fill="none" stroke="black" points="377.29,-246 371.29,-246"/>
<text text-anchor="middle" x="317.16" y="-228.95" font-family="Times,serif" font-size="14.00">var.key_pair_name</text>
</g>
<!-- [root] aws_key_pair.generated_key (expand)&#45;&gt;[root] var.key_pair_name -->
<g id="edge4" class="edge">
<title>[root] aws_key_pair.generated_key (expand)&#45;&gt;[root] var.key_pair_name</title>
<path fill="none" stroke="black" d="M317.16,-287.7C317.16,-280.24 317.16,-271.32 317.16,-262.97"/>
<polygon fill="black" stroke="black" points="320.66,-263.1 317.16,-253.1 313.66,-263.1 320.66,-263.1"/>
</g>
<!-- [root] aws_subnet.private_subnet (expand) -->
<g id="node3" class="node">
<title>[root] aws_subnet.private_subnet (expand)</title>
<polygon fill="none" stroke="black" points="239.29,-252 77.04,-252 77.04,-216 239.29,-216 239.29,-252"/>
<text text-anchor="middle" x="158.16" y="-228.95" font-family="Times,serif" font-size="14.00">aws_subnet.private_subnet</text>
</g>
<!-- [root] aws_vpc.vpc_virginia (expand) -->
<g id="node5" class="node">
<title>[root] aws_vpc.vpc_virginia (expand)</title>
<polygon fill="none" stroke="black" points="438.79,-180 303.54,-180 303.54,-144 438.79,-144 438.79,-180"/>
<text text-anchor="middle" x="371.16" y="-156.95" font-family="Times,serif" font-size="14.00">aws_vpc.vpc_virginia</text>
</g>
<!-- [root] aws_subnet.private_subnet (expand)&#45;&gt;[root] aws_vpc.vpc_virginia (expand) -->
<g id="edge5" class="edge">
<title>[root] aws_subnet.private_subnet (expand)&#45;&gt;[root] aws_vpc.vpc_virginia (expand)</title>
<path fill="none" stroke="black" d="M211.36,-215.52C240.7,-205.88 277.31,-193.84 308.08,-183.73"/>
<polygon fill="black" stroke="black" points="308.86,-186.83 317.27,-180.38 306.68,-180.18 308.86,-186.83"/>
</g>
<!-- [root] var.subnets -->
<g id="node9" class="node">
<title>[root] var.subnets</title>
<polygon fill="none" stroke="black" points="238.54,-180 167.79,-180 167.79,-144 244.54,-144 244.54,-174 238.54,-180"/>
<polyline fill="none" stroke="black" points="238.54,-180 238.54,-174"/>
<polyline fill="none" stroke="black" points="244.54,-174 238.54,-174"/>
<text text-anchor="middle" x="206.16" y="-156.95" font-family="Times,serif" font-size="14.00">var.subnets</text>
</g>
<!-- [root] aws_subnet.private_subnet (expand)&#45;&gt;[root] var.subnets -->
<g id="edge6" class="edge">
<title>[root] aws_subnet.private_subnet (expand)&#45;&gt;[root] var.subnets</title>
<path fill="none" stroke="black" d="M170.03,-215.7C175.55,-207.64 182.23,-197.89 188.34,-188.98"/>
<polygon fill="black" stroke="black" points="191.66,-191.33 194.43,-181.1 185.89,-187.37 191.66,-191.33"/>
</g>
<!-- [root] aws_subnet.public_subnet (expand)&#45;&gt;[root] aws_vpc.vpc_virginia (expand) -->
<g id="edge7" class="edge">
<title>[root] aws_subnet.public_subnet (expand)&#45;&gt;[root] aws_vpc.vpc_virginia (expand)</title>
<path fill="none" stroke="black" d="M448.44,-215.52C435.43,-206.68 419.48,-195.84 405.45,-186.3"/>
<polygon fill="black" stroke="black" points="407.8,-182.99 397.56,-180.26 403.86,-188.78 407.8,-182.99"/>
</g>
<!-- [root] aws_subnet.public_subnet (expand)&#45;&gt;[root] var.subnets -->
<g id="edge8" class="edge">
<title>[root] aws_subnet.public_subnet (expand)&#45;&gt;[root] var.subnets</title>
<path fill="none" stroke="black" d="M407.22,-215.52C360.06,-203.2 297.96,-186.98 255.32,-175.84"/>
<polygon fill="black" stroke="black" points="256.48,-172.27 245.92,-173.12 254.71,-179.04 256.48,-172.27"/>
</g>
<!-- [root] aws_vpc.vpc_virginia (expand)&#45;&gt;[root] provider[&quot;registry.terraform.io/hashicorp/aws&quot;] -->
<g id="edge9" class="edge">
<title>[root] aws_vpc.vpc_virginia (expand)&#45;&gt;[root] provider[&quot;registry.terraform.io/hashicorp/aws&quot;]</title>
<path fill="none" stroke="black" d="M439.18,-144.05C483.9,-132.92 542.1,-118.42 586.36,-107.39"/>
<polygon fill="black" stroke="black" points="587.15,-110.55 596.01,-104.74 585.46,-103.76 587.15,-110.55"/>
</g>
<!-- [root] var.virginia_cidr -->
<g id="node11" class="node">
<title>[root] var.virginia_cidr</title>
<polygon fill="none" stroke="black" points="364.16,-108 264.16,-108 264.16,-72 370.16,-72 370.16,-102 364.16,-108"/>
<polyline fill="none" stroke="black" points="364.16,-108 364.16,-102"/>
<polyline fill="none" stroke="black" points="370.16,-102 364.16,-102"/>
<text text-anchor="middle" x="317.16" y="-84.95" font-family="Times,serif" font-size="14.00">var.virginia_cidr</text>
</g>
<!-- [root] aws_vpc.vpc_virginia (expand)&#45;&gt;[root] var.virginia_cidr -->
<g id="edge10" class="edge">
<title>[root] aws_vpc.vpc_virginia (expand)&#45;&gt;[root] var.virginia_cidr</title>
<path fill="none" stroke="black" d="M357.81,-143.7C351.54,-135.56 343.92,-125.69 336.99,-116.7"/>
<polygon fill="black" stroke="black" points="339.24,-114.88 330.36,-109.1 333.69,-119.16 339.24,-114.88"/>
</g>
<!-- [root] data.aws_key_pair.lange2_key (expand)&#45;&gt;[root] provider[&quot;registry.terraform.io/hashicorp/aws&quot;] -->
<g id="edge11" class="edge">
<title>[root] data.aws_key_pair.lange2_key (expand)&#45;&gt;[root] provider[&quot;registry.terraform.io/hashicorp/aws&quot;]</title>
<path fill="none" stroke="black" d="M688.3,-143.7C682.69,-135.52 675.89,-125.6 669.7,-116.58"/>
<polygon fill="black" stroke="black" points="672.1,-114.89 663.56,-108.62 666.33,-118.85 672.1,-114.89"/>
</g>
<!-- [root] var.tags -->
<g id="node10" class="node">
<title>[root] var.tags</title>
<polygon fill="none" stroke="black" points="675.16,-36 623.16,-36 623.16,0 681.16,0 681.16,-30 675.16,-36"/>
<polyline fill="none" stroke="black" points="675.16,-36 675.16,-30"/>
<polyline fill="none" stroke="black" points="681.16,-30 675.16,-30"/>
<text text-anchor="middle" x="652.16" y="-12.95" font-family="Times,serif" font-size="14.00">var.tags</text>
</g>
<!-- [root] provider[&quot;registry.terraform.io/hashicorp/aws&quot;]&#45;&gt;[root] var.tags -->
<g id="edge16" class="edge">
<title>[root] provider[&quot;registry.terraform.io/hashicorp/aws&quot;]&#45;&gt;[root] var.tags</title>
<path fill="none" stroke="black" d="M652.16,-71.7C652.16,-64.24 652.16,-55.32 652.16,-46.97"/>
<polygon fill="black" stroke="black" points="655.66,-47.1 652.16,-37.1 648.66,-47.1 655.66,-47.1"/>
</g>
<!-- [root] output.ec2_public_ip (expand) -->
<g id="node12" class="node">
<title>[root] output.ec2_public_ip (expand)</title>
<ellipse fill="none" stroke="black" cx="642.16" cy="-378" rx="148.08" ry="18"/>
<text text-anchor="middle" x="642.16" y="-372.95" font-family="Times,serif" font-size="14.00">[root] output.ec2_public_ip (expand)</text>
</g>
<!-- [root] output.ec2_public_ip (expand)&#45;&gt;[root] aws_instance.public_ec2 (expand) -->
<g id="edge12" class="edge">
<title>[root] output.ec2_public_ip (expand)&#45;&gt;[root] aws_instance.public_ec2 (expand)</title>
<path fill="none" stroke="black" d="M624.12,-359.7C615.34,-351.28 604.64,-341.02 595.01,-331.79"/>
<polygon fill="black" stroke="black" points="597.89,-329.74 588.25,-325.35 593.05,-334.79 597.89,-329.74"/>
</g>
<!-- [root] provider[&quot;registry.terraform.io/hashicorp/aws&quot;] (close) -->
<g id="node13" class="node">
<title>[root] provider[&quot;registry.terraform.io/hashicorp/aws&quot;] (close)</title>
<ellipse fill="none" stroke="black" cx="238.16" cy="-378" rx="238.16" ry="18"/>
<text text-anchor="middle" x="238.16" y="-372.95" font-family="Times,serif" font-size="14.00">[root] provider[&quot;registry.terraform.io/hashicorp/aws&quot;] (close)</text>
</g>
<!-- [root] provider[&quot;registry.terraform.io/hashicorp/aws&quot;] (close)&#45;&gt;[root] aws_instance.public_ec2 (expand) -->
<g id="edge13" class="edge">
<title>[root] provider[&quot;registry.terraform.io/hashicorp/aws&quot;] (close)&#45;&gt;[root] aws_instance.public_ec2 (expand)</title>
<path fill="none" stroke="black" d="M315.77,-360.59C365.82,-350 430.99,-336.22 482.7,-325.29"/>
<polygon fill="black" stroke="black" points="483.12,-328.56 492.18,-323.07 481.68,-321.71 483.12,-328.56"/>
</g>
<!-- [root] provider[&quot;registry.terraform.io/hashicorp/aws&quot;] (close)&#45;&gt;[root] aws_key_pair.generated_key (expand) -->
<g id="edge14" class="edge">
<title>[root] provider[&quot;registry.terraform.io/hashicorp/aws&quot;] (close)&#45;&gt;[root] aws_key_pair.generated_key (expand)</title>
<path fill="none" stroke="black" d="M257.69,-359.7C267.28,-351.2 279,-340.81 289.5,-331.51"/>
<polygon fill="black" stroke="black" points="291.42,-334.6 296.58,-325.35 286.78,-329.36 291.42,-334.6"/>
</g>
<!-- [root] provider[&quot;registry.terraform.io/hashicorp/aws&quot;] (close)&#45;&gt;[root] aws_subnet.private_subnet (expand) -->
<g id="edge15" class="edge">
<title>[root] provider[&quot;registry.terraform.io/hashicorp/aws&quot;] (close)&#45;&gt;[root] aws_subnet.private_subnet (expand)</title>
<path fill="none" stroke="black" d="M228.35,-359.59C214.54,-335.08 189.26,-290.19 173.1,-261.52"/>
<polygon fill="black" stroke="black" points="175.76,-260.11 167.8,-253.11 169.66,-263.54 175.76,-260.11"/>
</g>
<!-- [root] root -->
<g id="node14" class="node">
<title>[root] root</title>
<ellipse fill="none" stroke="black" cx="440.16" cy="-450" rx="49.3" ry="18"/>
<text text-anchor="middle" x="440.16" y="-444.95" font-family="Times,serif" font-size="14.00">[root] root</text>
</g>
<!-- [root] root&#45;&gt;[root] output.ec2_public_ip (expand) -->
<g id="edge17" class="edge">
<title>[root] root&#45;&gt;[root] output.ec2_public_ip (expand)</title>
<path fill="none" stroke="black" d="M474.89,-436.97C504.97,-426.54 549.09,-411.25 584.47,-398.99"/>
<polygon fill="black" stroke="black" points="585.37,-402.04 593.67,-395.46 583.08,-395.42 585.37,-402.04"/>
</g>
<!-- [root] root&#45;&gt;[root] provider[&quot;registry.terraform.io/hashicorp/aws&quot;] (close) -->
<g id="edge18" class="edge">
<title>[root] root&#45;&gt;[root] provider[&quot;registry.terraform.io/hashicorp/aws&quot;] (close)</title>
<path fill="none" stroke="black" d="M405.44,-436.97C375.77,-426.68 332.43,-411.67 297.31,-399.5"/>
<polygon fill="black" stroke="black" points="298.76,-395.95 288.16,-395.98 296.47,-402.56 298.76,-395.95"/>
</g>
</g>
</svg>
